<svg version="1.1" id="Layer_1" xmlns="http://www.w3.org/2000/svg" xmlns:xlink="http://www.w3.org/1999/xlink" x="0px" y="0px"
	 width="100%" viewBox="0 0 256 256" enable-background="new 0 0 256 256" xml:space="preserve">
<path fill="#000000" opacity="1.000000" stroke="none" 
	d="
M121.107590,232.715088 
	C118.981537,232.081818 117.701317,230.633911 119.493965,229.502731 
	C123.927887,226.704865 121.959435,223.624817 120.491241,220.464661 
	C113.057106,204.463226 105.576118,188.483536 98.147095,172.479736 
	C95.553604,166.892761 93.080185,161.250153 90.517509,155.648712 
	C88.605087,151.468552 86.760590,147.235138 82.375755,144.625885 
	C82.632950,144.191788 82.890144,143.757675 83.147339,143.323578 
	C93.501320,143.323578 103.855301,143.323578 114.226341,143.323578 
	C114.323357,143.691116 114.564201,144.221542 114.467644,144.292435 
	C109.139046,148.204803 111.261169,152.485382 113.444542,157.146805 
	C120.009483,171.162704 126.301125,185.306549 132.724213,199.389145 
	C133.257385,200.558136 133.977615,201.641815 135.140488,203.704361 
	C138.926132,195.456192 142.387238,187.978500 145.793381,180.475861 
	C149.164886,173.049545 152.507996,165.610031 155.811478,158.153214 
	C157.905411,153.426682 161.865341,148.627182 154.294006,144.028229 
	C154.720230,143.774338 155.146454,143.520447 155.572678,143.266556 
	C165.780334,143.266556 175.987991,143.266556 186.193176,143.266556 
	C186.298050,143.685028 186.545685,144.192688 186.433060,144.292068 
	C177.053146,152.569016 174.631027,164.750320 169.315201,175.251343 
	C161.952179,189.796448 155.462402,204.784042 148.622833,219.593323 
	C146.796097,223.548645 144.263947,227.639236 150.617004,231.298279 
	C140.621429,233.626999 131.015869,232.627869 121.107590,232.715088 
z"/>
<path fill="#000000" opacity="1.000000" stroke="none" 
	d="
M113.238831,82.999527 
	C113.246460,88.496056 113.342224,93.494812 113.226456,98.488670 
	C113.159241,101.388168 114.141983,102.747307 117.236794,102.732491 
	C133.392441,102.655098 149.548676,102.682220 165.704620,102.716805 
	C167.894180,102.721504 169.474701,101.862038 170.849030,100.194756 
	C172.151962,98.614090 174.305267,98.200851 174.530579,100.561523 
	C175.227844,107.867508 175.450546,115.237228 173.912766,124.154869 
	C168.909576,117.456154 163.039154,118.981255 157.567093,118.965065 
	C136.914124,118.903976 116.260834,118.950623 95.607849,118.891098 
	C93.245743,118.884293 90.610130,119.472046 88.300896,116.774048 
	C94.002296,113.031723 92.630165,107.315018 92.640427,101.986626 
	C92.674103,84.498146 92.652817,67.009560 92.649635,49.521015 
	C92.649002,46.023319 92.303139,42.486000 92.714714,39.038372 
	C93.185287,35.096535 89.952545,32.970860 88.368370,29.227785 
	C98.296371,29.227785 107.627106,29.227785 116.957840,29.227785 
	C111.456474,34.464035 113.322815,40.757671 113.259689,46.524071 
	C113.128426,58.514587 113.231453,70.507668 113.238831,82.999527 
z"/>
</svg>